<svg width="96" height="61" viewBox="0 0 96 61" fill="none" xmlns="http://www.w3.org/2000/svg">
<g clip-path="url(#clip0_115_279)">
<path d="M87.7952 9.93817C86.1673 8.05869 85.5875 6.77535 84.7571 6.56311C81.6683 5.76009 78.5218 4.75081 75.3289 4.75546C66.7713 4.48332 58.8915 7.02407 51.3872 10.9054C38.5832 17.4945 28.2645 27.0574 18.9918 37.9956C17.9972 39.1639 16.9738 40.229 15.8771 41.4259C15.775 41.4545 15.5418 41.4086 15.1777 41.2882C15.155 38.8478 15.1035 36.3044 14.9787 33.8927C14.8364 32.598 14.432 31.1543 13.6769 30.0313C13.2704 29.3666 11.8581 28.6501 11.1431 28.8504C10.2239 29.1079 9.30266 30.1444 8.6589 30.992C8.29265 31.6506 8.45049 32.6073 8.47729 33.4895C8.67833 40.1059 8.67509 46.7795 9.00714 53.4704C9.28351 59.1761 11.5108 60.4428 16.633 58.6744C21.9594 56.8489 27.3437 55.2296 32.5969 53.5357C34.2021 52.9749 35.8518 52.1792 37.6324 51.458C34.4787 47.6704 34.4787 47.6704 17.4997 50.758C22.8294 42.2589 29.3785 35.7536 36.2184 29.5005C43.0584 23.2473 50.6824 18.2204 59.1637 14.2878C67.9514 10.2694 77.1238 9.59084 87.7952 9.93817Z" fill="white"/>
</g>
<defs>
<clipPath id="clip0_115_279">
<rect width="38" height="88" fill="white" transform="matrix(0.269717 0.96294 0.96294 -0.269717 0.297852 23.8242)"/>
</clipPath>
</defs>
</svg>
