<svg width="31" height="31" viewBox="0 0 31 31" fill="none" xmlns="http://www.w3.org/2000/svg">
<path fill-rule="evenodd" clip-rule="evenodd" d="M28.923 9.05812C28.9228 8.56194 28.8142 8.12351 28.5946 7.74722C28.3789 7.37719 28.0559 7.06706 27.6226 6.82185C24.046 4.80645 20.466 2.79721 16.8906 0.77975C15.9267 0.235913 14.9921 0.255739 14.0353 0.807384C12.6117 1.62786 5.48433 5.6185 3.36046 6.82072C2.48579 7.31556 2.06017 8.07286 2.05996 9.05719C2.05859 13.1103 2.05996 17.1633 2.05859 21.2165C2.0588 21.7018 2.16276 22.1317 2.37268 22.5023C2.58848 22.8835 2.91603 23.2022 3.3593 23.453C5.48328 24.6552 12.6116 28.6455 14.0349 29.4662C14.9921 30.0181 15.9267 30.0379 16.8909 29.4938C20.4664 27.4763 24.0467 25.4671 27.6238 23.4517C28.0671 23.2011 28.3946 22.8822 28.6104 22.5013C28.82 22.1307 28.9242 21.7007 28.9244 21.2154C28.9244 21.2154 28.9244 13.1113 28.923 9.05812Z" fill="#5C8DBC"/>
<path fill-rule="evenodd" clip-rule="evenodd" d="M15.5326 15.0972L2.37268 22.5021C2.58848 22.8834 2.91603 23.202 3.3593 23.4528C5.48328 24.655 12.6116 28.6453 14.0349 29.466C14.9921 30.018 15.9267 30.0377 16.8909 29.4937C20.4664 27.4761 24.0467 25.467 27.6238 23.4516C28.0671 23.2009 28.3946 22.882 28.6104 22.5011L15.5326 15.0972Z" fill="#1A4674"/>
<path fill-rule="evenodd" clip-rule="evenodd" d="M11.6348 17.2906C12.4005 18.5971 13.8401 19.4783 15.4915 19.4783C17.153 19.4783 18.6008 18.5859 19.3627 17.2654L15.5326 15.0972L11.6348 17.2906Z" fill="#1A4674"/>
<path fill-rule="evenodd" clip-rule="evenodd" d="M28.923 9.05797C28.9228 8.5618 28.8142 8.12336 28.5946 7.74707L15.5326 15.0972L28.6104 22.5011C28.82 22.1305 28.9242 21.7006 28.9244 21.2152C28.9244 21.2152 28.9244 13.1112 28.923 9.05797Z" fill="#1B598E"/>
<path fill-rule="evenodd" clip-rule="evenodd" d="M28.2039 15.6265H27.1819V16.6254H26.1598V15.6265H25.1379V14.6279H26.1598V13.6292H27.1819V14.6279H28.2039V15.6265Z" fill="white"/>
<path fill-rule="evenodd" clip-rule="evenodd" d="M24.4749 15.6265H23.4531V16.6254H22.4311V15.6265H21.4092V14.6279H22.4311V13.6292H23.4531V14.6279H24.4749V15.6265Z" fill="white"/>
<path fill-rule="evenodd" clip-rule="evenodd" d="M19.3626 17.2656C18.6008 18.5861 17.153 19.4785 15.4914 19.4785C13.8401 19.4785 12.4005 18.5973 11.6347 17.2908C11.2627 16.656 11.0488 15.9209 11.0488 15.1368C11.0488 12.7391 13.0379 10.7953 15.4914 10.7953C17.1322 10.7953 18.5642 11.6655 19.3337 12.9586L23.2168 10.7734C21.6734 8.16967 18.7919 6.41797 15.4914 6.41797C10.564 6.41797 6.5697 10.3216 6.5697 15.1368C6.5697 16.7166 6.99973 18.198 7.75131 19.4758C9.29084 22.0933 12.1806 23.8558 15.4914 23.8558C18.8084 23.8558 21.7026 22.0862 23.24 19.461L19.3626 17.2656Z" fill="white"/>
</svg>
