<svg width="31" height="32" viewBox="0 0 31 32" fill="none" xmlns="http://www.w3.org/2000/svg">
<path d="M4.73938 6.69125L6.69795 28.975L15.4867 31.3743L24.2999 29.0203L26.2606 6.69125H4.73938ZM22.1868 11.7644L22.064 13.2102L22.01 13.878H11.7003L11.9466 16.8519H21.7649L21.6993 17.4047L21.066 24.569L21.0195 24.9878L15.5 26.5079V26.5067L15.4935 26.5096L9.97717 25.0435L9.60275 20.817H12.3075L12.4991 22.9135L15.4986 23.6914L15.5 23.6334V23.6364L18.506 22.9799L18.8199 19.5779H9.48238L8.82024 11.9361L8.75558 11.152H22.2512L22.1868 11.7644ZM6.77061 0.40332H8.13218V1.78021H9.378V0.40332H10.7398V4.57214H9.378V3.17618H8.13243V4.57214H6.77061V0.40332ZM12.5303 1.78591H11.3315V0.40332H15.0914V1.78591H13.8921V4.57214H12.5303V1.78591ZM15.6882 0.40332H17.1079L17.9815 1.86818L18.8541 0.40332H20.2745V4.57214H18.918V2.50582L17.9815 3.98803H17.9577L17.0205 2.50582V4.57214H15.688V0.40332H15.6882ZM20.9524 0.40332H22.3144V3.19427H24.2294V4.57239H20.9524V0.40332Z" fill="#E44D26"/>
</svg>
