<svg width="31" height="40" viewBox="0 0 31 40" fill="none" xmlns="http://www.w3.org/2000/svg">
<path d="M1.48832 21.348L4.93674 17.8542C5.73589 17.0447 6.91049 17.1957 7.56007 18.1912C8.20994 19.187 8.08875 20.6508 7.2896 21.4602L5.6208 23.1511L17.7371 35.8731C18.5363 36.6825 18.6574 38.1463 18.0076 39.1418C17.6391 39.707 17.1016 39.9999 16.5598 39.9999C16.1465 39.9999 15.7301 39.8295 15.3846 39.4791L1.48832 24.9541C1.05303 24.5128 0.799988 23.8506 0.799988 23.1511C0.799988 22.4515 1.05303 21.7897 1.48832 21.348Z" fill="white"/>
<path d="M16.8012 7.32817e-05C17.7911 0.00996334 18.5875 1.018 18.5796 2.25197L18.4254 37.7835C18.4175 39.0175 17.6083 40.0095 16.6184 39.9996C16.3674 39.9974 16.1293 39.9308 15.9132 39.8129C15.2768 39.4648 14.8339 38.6694 14.8397 37.7478L14.9941 2.21659C15.0021 0.982613 15.811 -0.00981677 16.8012 7.32817e-05Z" fill="white"/>
<path d="M24.6709 24.4415L25.9444 23.1513L21.4084 18.5551C20.6093 17.7456 20.4884 16.2819 21.138 15.2864C21.7875 14.2901 22.9621 14.1395 23.7613 14.949L30.0766 21.3482C30.5122 21.7899 30.7649 22.4517 30.7649 23.1513C30.7649 23.8508 30.5122 24.513 30.0766 24.9543L27.0238 28.0476C26.6779 28.398 26.2619 28.5683 25.8486 28.5683C25.3065 28.5683 24.7689 28.2755 24.4005 27.7106C23.7509 26.7147 23.8721 25.2514 24.6709 24.4415Z" fill="#39BEF8"/>
</svg>
