<svg width="31" height="31" viewBox="0 0 31 31" fill="none" xmlns="http://www.w3.org/2000/svg">
<g clip-path="url(#clip0_2_403)">
<path d="M15.3512 0.121094C7.50043 0.121094 7.99068 3.52567 7.99068 3.52567L7.99944 7.05277H15.4912V8.11178H5.02372C5.02372 8.11178 0 7.54204 0 15.4636C-5.59937e-07 23.3851 4.38481 23.1042 4.38481 23.1042H7.00169V19.4283C7.00169 19.4283 6.86064 15.0435 11.3165 15.0435H18.747C18.747 15.0435 22.9218 15.1109 22.9218 11.0087V4.22584C22.9218 4.22584 23.5556 0.121094 15.3512 0.121094ZM11.2202 2.49292C11.9656 2.49292 12.568 3.09536 12.568 3.84074C12.568 4.58612 11.9656 5.18857 11.2202 5.18857C10.4748 5.18857 9.87239 4.58612 9.87239 3.84074C9.87239 3.09536 10.4748 2.49292 11.2202 2.49292Z" fill="url(#paint0_linear_2_403)"/>
<path d="M15.5741 30.8854C23.4249 30.8854 22.9347 27.4808 22.9347 27.4808L22.9259 23.9537H15.4341V22.8947H25.9016C25.9016 22.8947 30.9253 23.4645 30.9253 15.543C30.9253 7.62144 26.5405 7.90236 26.5405 7.90236H23.9236V11.5782C23.9236 11.5782 24.0647 15.9631 19.6088 15.9631H12.1783C12.1783 15.9631 8.00354 15.8956 8.00354 19.9978V26.7807C8.00354 26.7807 7.3697 30.8854 15.5741 30.8854ZM19.7051 28.5136C18.9597 28.5136 18.3573 27.9111 18.3573 27.1658C18.3573 26.4204 18.9597 25.8179 19.7051 25.8179C20.4505 25.8179 21.0529 26.4204 21.0529 27.1658C21.053 27.9111 20.4505 28.5136 19.7051 28.5136Z" fill="url(#paint1_linear_2_403)"/>
</g>
<defs>
<linearGradient id="paint0_linear_2_403" x1="2.97199" y1="2.88826" x2="18.2975" y2="18.0609" gradientUnits="userSpaceOnUse">
<stop stop-color="#387EB8"/>
<stop offset="1" stop-color="#366994"/>
</linearGradient>
<linearGradient id="paint1_linear_2_403" x1="12.3787" y1="12.6311" x2="28.8367" y2="28.1893" gradientUnits="userSpaceOnUse">
<stop stop-color="#FFE052"/>
<stop offset="1" stop-color="#FFC331"/>
</linearGradient>
<clipPath id="clip0_2_403">
<rect width="31" height="31" fill="white"/>
</clipPath>
</defs>
</svg>
