<svg width="1551" height="308" viewBox="0 0 1551 308" fill="none" xmlns="http://www.w3.org/2000/svg">
<path fill-rule="evenodd" clip-rule="evenodd" d="M0 231L64.625 205.333C129.25 179.667 258.5 128.333 387.75 134.75C517 141.167 646.25 205.333 775.5 205.333C904.75 205.333 1034 141.167 1163.25 96.25C1292.5 51.3333 1421.75 25.6667 1486.38 12.8333L1551 0V308H1486.38C1421.75 308 1292.5 308 1163.25 308C1034 308 904.75 308 775.5 308C646.25 308 517 308 387.75 308C258.5 308 129.25 308 64.625 308H0V231Z" fill="#221FD8" fill-opacity="0.48"/>
</svg>
